# xmcd
#
# Track frame offsets:
#	450
#	16817
#	35921
#	53968
#	72705
#	85367
#	103181
#	117703
#	132367
#	154606
#	174160
#
# Disc length: 2563 seconds
#
# Revision: 1
# Processed by: cddbd v1.5.2PL0 Copyright (c) Steve Scherf et al.
# Submitted via: audiograbber 1.83.01
#
DISCID=a009fd0b
DTITLE=Putumayo - New Orleans Christmas
DYEAR=2006
DGENRE=Blues
TTITLE0=Big Al Carson with Lars Edegran and his Santa Claus Revelers - Santa Clau
TTITLE0=s is Comin' to Town
TTITLE1=James Andrews - Christmas in New Orleans
TTITLE2=Ingrid Lucia - Zat You, Santa Claus?
TTITLE3=Silver Bells  - Silver Bells 
TTITLE4=Banu Gibson and The New Orleans Hot Jazz - I'll Be Home For Christmas
TTITLE5=Papa Don Vappie's New Orleans Jazz Band - Please Come Home for Christma
TTITLE5=s
TTITLE6=Ellis Marsalis -  God Rest Ye Merry Gentlemen
TTITLE7=John Boutté - White Christmas
TTITLE8=Topsy Chapman and Lars Edegran - Have Yourself a Merry Little Christmas
TTITLE9=New Birth Brass Band - Santa's Second Line
TTITLE10=Dukes of Dixieland - Holiday Time in New Orleans 
EXTD=
EXTT0=
EXTT1=
EXTT2=
EXTT3=
EXTT4=
EXTT5=
EXTT6=
EXTT7=
EXTT8=
EXTT9=
EXTT10=
PLAYORDER=
